<svg id="Layer_1" data-name="Layer 1" xmlns="http://www.w3.org/2000/svg" viewBox="0 0 1024.32 227.04"><defs><style>.cls-1{fill:#fff;}</style></defs><path class="cls-1" d="M34.37,73.78C26,93.17,18.1,110.9,9.75,130.29H66.59c10.31.35,19.74-1.7,26-12.28,9.68-23.19,18.91-44.71,28.59-67.9L64,49.81c-15.3,1.07-24.12,10.43-29.64,24"/><path class="cls-1" d="M184.05,66.38l17.19,39.92h-39c-7.08.24-13.54-1.17-17.82-8.42L124.5,50.14l39.21-.2c10.5.73,16.54,7.15,20.34,16.44"/><path class="cls-1" d="M68.72,153.3q8.61,20,17.2,39.92h-39c-7.08.23-13.54-1.17-17.82-8.43L9.18,137.06l39.21-.2c10.5.73,16.54,7.15,20.33,16.44"/><path class="cls-1" d="M114.39,137.18c-8.36,19.39-16,36.77-24.31,56.16h56.84c10.32.34,19.74-1.7,26-12.28,9.67-23.19,18.59-44.37,28.27-67.56L144,113.21c-15.31,1.07-24.12,10.42-29.64,24"/><path class="cls-1" d="M259.54,145.56H245.36c-5.45,0-9.7.72-12.64,2.13a16.91,16.91,0,0,0-7.37,7.52,30.83,30.83,0,0,0-3.49,14.88,30.46,30.46,0,0,0,2.57,12.77c2.38,5.24,6.14,8.62,11.17,10A39.37,39.37,0,0,0,245.78,194h13.76a1.35,1.35,0,0,0,1.35-1.35v-4a1.34,1.34,0,0,0-1.35-1.34H246.41a26.9,26.9,0,0,1-7.47-.78,9.55,9.55,0,0,1-4.34-2.87c-2.69-3-4-7.52-4-13.33a32.76,32.76,0,0,1,1.06-8.55,15.69,15.69,0,0,1,2.89-6.07,8.28,8.28,0,0,1,4-2.7,26.91,26.91,0,0,1,7.26-.74h13.76a1.34,1.34,0,0,0,1.35-1.35v-4a1.35,1.35,0,0,0-1.35-1.35"/><path class="cls-1" d="M298.84,146.41a1.34,1.34,0,0,0-1.25-.85H289a1.35,1.35,0,0,0-1.25.84l-18.87,45.69A1.35,1.35,0,0,0,270.1,194h5.83a1.32,1.32,0,0,0,1.24-.84l4.54-11.19a.76.76,0,0,1,.7-.48H303.6a.78.78,0,0,1,.71.49l4.33,11.16a1.37,1.37,0,0,0,1.26.86h5.83a1.35,1.35,0,0,0,1.26-1.85Zm2.14,28a.77.77,0,0,1-.63.32h-14.8a.74.74,0,0,1-.62-.33.75.75,0,0,1-.08-.71l7.59-19.47a.73.73,0,0,1,.7-.49h0a.78.78,0,0,1,.71.5l7.21,19.48a.76.76,0,0,1-.09.7"/><path class="cls-1" d="M356.39,146.56a26.1,26.1,0,0,0-8.32-1h-20a1.36,1.36,0,0,0-1.35,1.35v45.7a1.36,1.36,0,0,0,1.35,1.35h5.51a1.35,1.35,0,0,0,1.35-1.35V177.35a.76.76,0,0,1,.76-.76h11a40.19,40.19,0,0,0,8.45-.71,12.24,12.24,0,0,0,5.2-2.41c3.38-2.85,5.1-7.07,5.1-12.55a17.22,17.22,0,0,0-1.93-8.45,13,13,0,0,0-7.07-5.91M334.91,153a.76.76,0,0,1,.76-.76h11.18c3.77,0,6.28.62,7.48,1.87a9.22,9.22,0,0,1,2.33,6.66c0,3.24-.77,5.64-2.29,7.14-1.31,1.32-3.74,2-7.21,2H335.67a.76.76,0,0,1-.76-.76Z"/><path class="cls-1" d="M382.81,145.56h-5.52a1.35,1.35,0,0,0-1.34,1.35v45.7a1.35,1.35,0,0,0,1.34,1.35h5.52a1.35,1.35,0,0,0,1.34-1.35v-45.7a1.35,1.35,0,0,0-1.34-1.35"/><path class="cls-1" d="M434.48,150.89v-4a1.35,1.35,0,0,0-1.35-1.35H394.59a1.36,1.36,0,0,0-1.35,1.35v4a1.35,1.35,0,0,0,1.35,1.35H409a.77.77,0,0,1,.76.77v39.6a1.36,1.36,0,0,0,1.35,1.35h5.51a1.36,1.36,0,0,0,1.35-1.35V153a.77.77,0,0,1,.76-.77h14.42a1.34,1.34,0,0,0,1.35-1.35"/><path class="cls-1" d="M463.1,146.42a1.34,1.34,0,0,0-1.25-.86h-8.61a1.35,1.35,0,0,0-1.25.84l-18.88,45.69a1.36,1.36,0,0,0,1.25,1.87h5.82a1.33,1.33,0,0,0,1.25-.85L446,181.93a.74.74,0,0,1,.7-.47h21.18a.75.75,0,0,1,.71.48l4.34,11.16a1.35,1.35,0,0,0,1.26.86H480a1.36,1.36,0,0,0,1.12-.59,1.34,1.34,0,0,0,.13-1.26Zm-14,27.31,7.59-19.47a.75.75,0,0,1,.71-.49h0a.76.76,0,0,1,.7.5l7.22,19.47a.81.81,0,0,1-.09.71.77.77,0,0,1-.63.32h-14.8a.77.77,0,0,1-.63-.33.78.78,0,0,1-.08-.71"/><path class="cls-1" d="M520.05,187.28h-9.19c-4.57,0-8-1-10.12-3.16a7.81,7.81,0,0,1-1.67-3.63,35.54,35.54,0,0,1-.5-6.82V146.91a1.35,1.35,0,0,0-1.34-1.35h-5.51a1.35,1.35,0,0,0-1.35,1.35v27.67a34.51,34.51,0,0,0,.92,8.92,13,13,0,0,0,3.21,5.67,13.92,13.92,0,0,0,5.91,3.72,30.42,30.42,0,0,0,8.95,1.07h10.69a1.36,1.36,0,0,0,1.35-1.35v-4a1.35,1.35,0,0,0-1.35-1.35"/><path class="cls-1" d="M578.57,146.42a1.35,1.35,0,0,0-1.25-.86h-8.61a1.35,1.35,0,0,0-1.25.84l-18.88,45.69a1.36,1.36,0,0,0,1.25,1.87h5.82a1.34,1.34,0,0,0,1.25-.85l4.54-11.18a.74.74,0,0,1,.7-.47h21.18a.75.75,0,0,1,.71.48l4.34,11.16a1.33,1.33,0,0,0,1.25.86h5.84a1.35,1.35,0,0,0,1.25-1.85Zm2.14,28a.79.79,0,0,1-.63.32h-14.8a.77.77,0,0,1-.63-.33.78.78,0,0,1-.08-.71l7.59-19.47a.75.75,0,0,1,.71-.49h0a.74.74,0,0,1,.7.5l7.21,19.47a.78.78,0,0,1-.08.71"/><path class="cls-1" d="M658.31,145.56h-9.47a1.35,1.35,0,0,0-1.26.88l-13.27,35.74a.76.76,0,0,1-.7.5h0a.77.77,0,0,1-.71-.48l-14.37-35.79a1.34,1.34,0,0,0-1.25-.85h-9.49a1.35,1.35,0,0,0-1.35,1.35v45.7a1.35,1.35,0,0,0,1.35,1.35h5.3a1.36,1.36,0,0,0,1.35-1.35V158.8a.76.76,0,0,1,1.47-.27L629,193.09a1.35,1.35,0,0,0,1.26.87h6.12a1.36,1.36,0,0,0,1.27-.89l12.55-34.34a.75.75,0,0,1,.85-.49.74.74,0,0,1,.63.75v33.62A1.35,1.35,0,0,0,653,194h5.3a1.36,1.36,0,0,0,1.35-1.35v-45.7a1.36,1.36,0,0,0-1.35-1.35"/><path class="cls-1" d="M707.9,169.66a.75.75,0,0,1-.42-.63.76.76,0,0,1,.34-.68,11.41,11.41,0,0,0,5.62-10.23,12.38,12.38,0,0,0-3.43-8.93,10.22,10.22,0,0,0-4.89-2.86,34.79,34.79,0,0,0-8.4-.77H675a1.35,1.35,0,0,0-1.34,1.35v45.7A1.35,1.35,0,0,0,675,194h19.88c6.7,0,11.43-.94,14-2.79,3.51-2.47,5.3-6.18,5.3-11a11.27,11.27,0,0,0-3-8.23,11.87,11.87,0,0,0-3.26-2.26m-26.09,16.85V173.22a.76.76,0,0,1,.76-.77h14.15c3.13,0,5.4.57,6.75,1.69s2,3,2,5.48c0,5.15-3.08,7.66-9.42,7.66H682.57a.77.77,0,0,1-.76-.77m20.78-22.12c-1.2.92-3.17,1.38-5.87,1.38H682.57a.76.76,0,0,1-.76-.76V153a.77.77,0,0,1,.76-.77h14.15a17.56,17.56,0,0,1,4.14.35,5.07,5.07,0,0,1,2.23,1.29A6.81,6.81,0,0,1,705,159a6.35,6.35,0,0,1-2.4,5.4"/><path class="cls-1" d="M765,145.56h-5.51a1.36,1.36,0,0,0-1.35,1.35v26.76a46.57,46.57,0,0,1-.33,6.57,8,8,0,0,1-1.19,3.31c-2,3-5.72,4.46-11,4.46-4.76,0-8.18-1.28-10.19-3.81a8.54,8.54,0,0,1-1.62-3.68,32.06,32.06,0,0,1-.48-6.26V146.91a1.36,1.36,0,0,0-1.35-1.35h-5.51a1.35,1.35,0,0,0-1.35,1.35v27.35a34.25,34.25,0,0,0,.88,8.91,14.93,14.93,0,0,0,7.38,9.21c2.8,1.54,6.62,2.31,11.33,2.31,5.24,0,9.57-.82,12.88-2.44,4.38-2.13,7.08-5.26,8-9.31a44.21,44.21,0,0,0,.71-9.27V146.91a1.35,1.35,0,0,0-1.35-1.35"/><path class="cls-1" d="M808.9,187.28h-9.19c-4.57,0-8-1-10.12-3.16a7.71,7.71,0,0,1-1.66-3.63,35.54,35.54,0,0,1-.5-6.82V146.91a1.36,1.36,0,0,0-1.35-1.35h-5.51a1.35,1.35,0,0,0-1.35,1.35v27.67a34.51,34.51,0,0,0,.92,8.92,13.1,13.1,0,0,0,3.22,5.67,13.88,13.88,0,0,0,5.9,3.72,30.42,30.42,0,0,0,9,1.07H808.9a1.35,1.35,0,0,0,1.35-1.35v-4a1.34,1.34,0,0,0-1.35-1.35"/><path class="cls-1" d="M847.16,146.42a1.36,1.36,0,0,0-1.26-.86h-8.61a1.32,1.32,0,0,0-1.24.84l-18.88,45.69a1.36,1.36,0,0,0,1.25,1.87h5.82a1.34,1.34,0,0,0,1.25-.85L830,181.93a.76.76,0,0,1,.71-.47h21.18a.77.77,0,0,1,.71.48L857,193.1a1.36,1.36,0,0,0,1.26.86H864a1.35,1.35,0,0,0,1.12-.59,1.37,1.37,0,0,0,.14-1.26Zm-6.41,7.84a.74.74,0,0,1,.71-.49h0a.77.77,0,0,1,.71.5l7.21,19.47a.76.76,0,0,1-.71,1h-14.8a.74.74,0,0,1-.63-.33.78.78,0,0,1-.08-.71Z"/><path class="cls-1" d="M915.08,145.56h-5.3a1.35,1.35,0,0,0-1.35,1.35v33.57a.76.76,0,0,1-1.4.41L885,146.19a1.36,1.36,0,0,0-1.14-.63h-7.46a1.36,1.36,0,0,0-1.35,1.35v45.7a1.36,1.36,0,0,0,1.35,1.35h5.31a1.35,1.35,0,0,0,1.34-1.35v-33.5a.75.75,0,0,1,.55-.73.73.73,0,0,1,.85.31l22.32,34.65a1.35,1.35,0,0,0,1.14.62h7.21a1.36,1.36,0,0,0,1.35-1.35v-45.7a1.36,1.36,0,0,0-1.35-1.35"/><path class="cls-1" d="M965.06,145.56H950.87c-5.45,0-9.7.72-12.64,2.13a17,17,0,0,0-7.37,7.52,30.83,30.83,0,0,0-3.49,14.88A30.47,30.47,0,0,0,930,182.86c2.38,5.24,6.13,8.62,11.16,10A39.42,39.42,0,0,0,951.29,194h13.77a1.35,1.35,0,0,0,1.34-1.35v-4a1.34,1.34,0,0,0-1.34-1.34H951.92a26.77,26.77,0,0,1-7.46-.78,9.55,9.55,0,0,1-4.34-2.87c-2.69-3-4-7.52-4-13.33a32.88,32.88,0,0,1,1-8.55,15.69,15.69,0,0,1,2.9-6.07,8.3,8.3,0,0,1,4-2.7,27,27,0,0,1,7.26-.74h13.77a1.34,1.34,0,0,0,1.34-1.35v-4a1.35,1.35,0,0,0-1.34-1.35"/><path class="cls-1" d="M988.69,154.56a9.71,9.71,0,0,1,3.69-1.8,26,26,0,0,1,5.88-.52h12.86a1.35,1.35,0,0,0,1.35-1.35v-4a1.36,1.36,0,0,0-1.35-1.35h-12.4c-5.6,0-10,.84-13.18,2.49a19,19,0,0,0-7.85,8.5c-1.83,3.59-2.76,8.35-2.76,14.14a31.26,31.26,0,0,0,1.7,11c2.1,5.54,5.46,9.2,10,10.85a29.3,29.3,0,0,0,9.85,1.39h14.64a1.36,1.36,0,0,0,1.35-1.35v-4a1.35,1.35,0,0,0-1.35-1.35H997.88a17.82,17.82,0,0,1-7.36-1.24,10,10,0,0,1-4.34-4.22,17.39,17.39,0,0,1-2.23-8.14.74.74,0,0,1,.21-.53.8.8,0,0,1,.56-.24h26.4a1.36,1.36,0,0,0,1.35-1.35v-4a1.35,1.35,0,0,0-1.35-1.35H984.79a.83.83,0,0,1-.57-.25.75.75,0,0,1-.19-.57,22.21,22.21,0,0,1,1.31-6.27,11,11,0,0,1,3.35-4.58"/><path class="cls-1" d="M272.69,51.21a1.37,1.37,0,0,0-1.37-1.37h-5.75a1.37,1.37,0,0,0-1.37,1.37V95.1a0,0,0,0,0,0,0v10.51a15.56,15.56,0,0,1-.71,5.42A6.68,6.68,0,0,1,261,114c-2.9,2-7.24,3-12.9,3a41.52,41.52,0,0,1-8.42-.8,17.29,17.29,0,0,1-5.81-2.13,5.61,5.61,0,0,1-2.33-2.66,15.6,15.6,0,0,1-.67-5.26V95.43a2.13,2.13,0,0,0-2.26-2h-4a2.13,2.13,0,0,0-2.26,2v11c0,4.43.77,7.91,2.29,10.36s4.22,4.52,8,6.09a43,43,0,0,0,28.37.74c5.54-2,9.12-5.06,10.65-9.25a24.51,24.51,0,0,0,1.13-8.26l0-18a5.19,5.19,0,0,0,0-.56Z"/><path class="cls-1" d="M453.86,121.05h-6.1a1.22,1.22,0,0,0-1.33,1.32v6.56a1.22,1.22,0,0,0,1.33,1.32h6.1a1.22,1.22,0,0,0,1.33-1.32v-6.56a1.22,1.22,0,0,0-1.33-1.32"/><path class="cls-1" d="M465.72,121.05h-6.11a1.21,1.21,0,0,0-1.32,1.32v6.56a1.21,1.21,0,0,0,1.32,1.32h6.11a1.22,1.22,0,0,0,1.33-1.32v-6.56a1.22,1.22,0,0,0-1.33-1.32"/><path class="cls-1" d="M505.42,121.31h-6.1a1.22,1.22,0,0,0-1.33,1.32v6.56a1.22,1.22,0,0,0,1.33,1.33h6.1a1.22,1.22,0,0,0,1.33-1.33v-6.56a1.22,1.22,0,0,0-1.33-1.32"/><path class="cls-1" d="M505.44,76h-5.75a1.22,1.22,0,0,0-1.32,1.33v24.07c0,1.67-.31,2.82-.91,3.42a4.06,4.06,0,0,1-3,.91H467.93a9.82,9.82,0,0,1-5.64-1.45,4.79,4.79,0,0,1-2-4.23V77.29A1.22,1.22,0,0,0,459,76H453.2a1.22,1.22,0,0,0-1.32,1.33v24.07c0,1.67-.31,2.82-.91,3.42a4.07,4.07,0,0,1-3,.91H400.65a9.8,9.8,0,0,1-5.64-1.45,4.75,4.75,0,0,1-2-4.23V77.29A1.22,1.22,0,0,0,391.67,76h-5.75a1.22,1.22,0,0,0-1.32,1.33v24.07c0,1.67-.31,2.82-.91,3.42a4.1,4.1,0,0,1-3,.91H374.6l-.3,0-.32,0H302.45a8.47,8.47,0,0,0-1.07.07c-3.31-.08-4.69-.57-6.54-2.43a8,8,0,0,1-1.74-3.79,37.2,37.2,0,0,1-.52-7.1V51.33A1.38,1.38,0,0,0,291.2,50h-5.74a1.37,1.37,0,0,0-1.37,1.37V93.39a36.09,36.09,0,0,0,1,9.27,13.6,13.6,0,0,0,3.35,5.89,14.63,14.63,0,0,0,6.14,3.86,27.52,27.52,0,0,0,6.85,1,6.79,6.79,0,0,0,1.07.09H374l.29,0,.33,0h7.46c4.52,0,7.66-1.42,9.34-4.21a8.14,8.14,0,0,0,3.12,3,10.83,10.83,0,0,0,5.23,1.22h49.59c4.52,0,7.66-1.42,9.34-4.21a8.28,8.28,0,0,0,3.12,3,10.83,10.83,0,0,0,5.23,1.22h28.8c3.88,0,6.71-1,8.4-2.89s2.54-4.87,2.54-8.86V77.29A1.22,1.22,0,0,0,505.44,76"/><path class="cls-1" d="M622.35,76H556.49l15.63-18.33a1.33,1.33,0,0,0-.47-1.78l-4.37-3.63a1.28,1.28,0,0,0-1.71.36L545.93,75.73a6.07,6.07,0,0,0-.53.62,1.77,1.77,0,0,0-.4,1.12v5a1.21,1.21,0,0,0,1.32,1.32h73.25c6.6,0,9.81,2.83,9.81,8.64V98a23.16,23.16,0,0,1-.26,3.79,4.69,4.69,0,0,1-1,2.27A4,4,0,0,1,626,105.3a16.08,16.08,0,0,1-3.94.39H536.74a6.39,6.39,0,0,0-1.13.09c-3.69,0-5.12-.5-7.07-2.45a8,8,0,0,1-1.74-3.79,36.39,36.39,0,0,1-.52-7.1V51.33A1.38,1.38,0,0,0,524.9,50h-5.74a1.38,1.38,0,0,0-1.38,1.37V93.39a36,36,0,0,0,1,9.27,13.66,13.66,0,0,0,3.35,5.89,14.56,14.56,0,0,0,6.14,3.86,37.08,37.08,0,0,0,6.65.83,4.87,4.87,0,0,0,1.86.31h88.13a21.35,21.35,0,0,0,6-.74,9,9,0,0,0,4.23-2.59,11.48,11.48,0,0,0,2.46-4.9,30.75,30.75,0,0,0,.79-7.56V92.38c0-5.62-1.52-9.8-4.5-12.45a16.75,16.75,0,0,0-11.47-4"/><path class="cls-1" d="M756.19,67.92h6.11a1.22,1.22,0,0,0,1.33-1.32V60a1.22,1.22,0,0,0-1.33-1.32h-6.11A1.22,1.22,0,0,0,754.87,60V66.6a1.21,1.21,0,0,0,1.32,1.32"/><path class="cls-1" d="M758.62,74.35a20.4,20.4,0,0,0-6.93,1.14,14.92,14.92,0,0,0-5.59,3.61,16.63,16.63,0,0,0-3.73,6.26,27.2,27.2,0,0,0-1.33,9,24.42,24.42,0,0,0,2.31,11.34H670.06a4.15,4.15,0,0,1-3-.91c-.6-.6-.9-1.75-.9-3.42V83.3A1.22,1.22,0,0,0,664.85,82h-5.74a1.22,1.22,0,0,0-1.33,1.32v18.51c0,4,.85,7,2.53,8.86s4.52,2.88,8.41,2.88h89.9a23.54,23.54,0,0,0,7.27-1.06,13.66,13.66,0,0,0,5.56-3.33,15,15,0,0,0,3.51-6,27.94,27.94,0,0,0,1.24-8.85c0-7-1.58-12.1-4.7-15.25s-7.46-4.75-12.88-4.75m9.18,20c0,4.19-.73,7.16-2.18,8.84s-3.79,2.5-7,2.5-5.55-.9-7-2.67-2.19-4.9-2.19-9.21c0-3.6.78-6.47,2.33-8.54s3.79-3.07,6.85-3.07,5.53,1.06,7,3.14,2.21,5.17,2.21,9"/><path class="cls-1" d="M991.77,76H986a1.22,1.22,0,0,0-1.32,1.33v24.07c0,1.67-.31,2.82-.91,3.42a4.13,4.13,0,0,1-3,.91h-2.24a9.36,9.36,0,0,1-5.5-1.45,4.79,4.79,0,0,1-2-4.23V85a1.21,1.21,0,0,0-1.32-1.32H964A1.22,1.22,0,0,0,962.69,85v16.35c0,1.67-.3,2.82-.91,3.42a4.11,4.11,0,0,1-3,.91h-2.25a9.41,9.41,0,0,1-5.5-1.45,4.79,4.79,0,0,1-2-4.23V85a1.22,1.22,0,0,0-1.33-1.32H942A1.22,1.22,0,0,0,940.69,85v16.35c0,1.67-.31,2.82-.91,3.42a4.11,4.11,0,0,1-3,.91H895.08a24.86,24.86,0,0,0,2.76-2.27,24.12,24.12,0,0,0,3.39-4,22.16,22.16,0,0,0,2.47-4.94,16.89,16.89,0,0,0,1-5.67,13,13,0,0,0-4.74-10.57c-3.12-2.56-8-3.86-14.46-3.86a37.67,37.67,0,0,0-5.91.45A38.16,38.16,0,0,0,874.43,76a35.07,35.07,0,0,0-4.09,1.55A31.09,31.09,0,0,0,867.47,79a2.34,2.34,0,0,0-1.11,2.16v5.39a2.21,2.21,0,0,0,.28,1.06,3.62,3.62,0,0,0,1.16,1.08l3.9,2.87a20.38,20.38,0,0,1,3.47,3.3A21,21,0,0,1,878,99.21a25,25,0,0,1,1.81,5.61,21.27,21.27,0,0,1-4.06.73c-1.29.1-2.32.14-3.07.14h-68.2a8,8,0,0,0-1,.07c-3.14-.1-4.5-.62-6.31-2.43a8,8,0,0,1-1.74-3.79,36.39,36.39,0,0,1-.52-7.1V51.33A1.38,1.38,0,0,0,793.44,50H787.7a1.38,1.38,0,0,0-1.38,1.37V93.39a36,36,0,0,0,1,9.27,13.66,13.66,0,0,0,3.35,5.89,14.47,14.47,0,0,0,6.14,3.86,26.71,26.71,0,0,0,6.54,1,6.21,6.21,0,0,0,1.12.1h68.83a35.24,35.24,0,0,0,6-.59,21.1,21.1,0,0,0,6.2-2.13,17.19,17.19,0,0,0,5.45,2.13,32.08,32.08,0,0,0,6.24.59h41c4.52,0,7.66-1.42,9.35-4.21a8.18,8.18,0,0,0,3.11,3,10.87,10.87,0,0,0,5.24,1.22h4.31c4.52,0,7.66-1.42,9.34-4.21a8.21,8.21,0,0,0,3.12,3,10.83,10.83,0,0,0,5.23,1.22h4.31c3.88,0,6.71-1,8.4-2.89s2.53-4.87,2.53-8.85V77.29A1.22,1.22,0,0,0,991.77,76m-96.65,9.9a6.79,6.79,0,0,1,.79,3.46,10.27,10.27,0,0,1-.82,4,15.59,15.59,0,0,1-2.1,3.59,20.69,20.69,0,0,1-2.86,3,26.51,26.51,0,0,1-2.5,1.93,30.56,30.56,0,0,0-4.91-10.71,26.79,26.79,0,0,0-7.51-7,27.15,27.15,0,0,1,3.28-1.1,26.43,26.43,0,0,1,7-.84,23.51,23.51,0,0,1,4.19.36A9.91,9.91,0,0,1,893,83.72a6.09,6.09,0,0,1,2.14,2.14"/><path class="cls-1" d="M1005.69,113.39h5.75a1.06,1.06,0,0,0,1.17-1.17V50.9a1.06,1.06,0,0,0-1.17-1.16h-5.75a1.06,1.06,0,0,0-1.17,1.16v61.32a1.05,1.05,0,0,0,1.17,1.17"/><path class="cls-1" d="M1014.24,127.15h-5.81a6,6,0,0,1-1.15-1.29,3.47,3.47,0,0,1-.61-2,3.33,3.33,0,0,1,.71-2.12,2.57,2.57,0,0,1,2.17-.88,2.86,2.86,0,0,1,1.41.35,3.91,3.91,0,0,1,1.14.89c.12.12.47.36,1-.09l1.22-1c.14-.13.26-.4,0-.92a4.68,4.68,0,0,0-2-1.58,6.86,6.86,0,0,0-2.78-.54,6.42,6.42,0,0,0-2.89.58,5.49,5.49,0,0,0-1.9,1.44,5.29,5.29,0,0,0-1,1.93,7.19,7.19,0,0,0-.3,2,6.7,6.7,0,0,0,.3,2.06,7.11,7.11,0,0,0,.52,1.22h-1.7a.59.59,0,0,0-.61.67v1.6a.59.59,0,0,0,.61.67h11.63a.6.6,0,0,0,.62-.67v-1.6a.6.6,0,0,0-.62-.67"/><path class="cls-1" d="M379.87,68.05H386a1.22,1.22,0,0,0,1.33-1.32V60.17A1.22,1.22,0,0,0,386,58.85h-6.1a1.22,1.22,0,0,0-1.33,1.32v6.56a1.22,1.22,0,0,0,1.33,1.32"/><path class="cls-1" d="M391.73,68.05h6.1a1.22,1.22,0,0,0,1.33-1.32V60.17a1.22,1.22,0,0,0-1.33-1.32h-6.1a1.22,1.22,0,0,0-1.33,1.32v6.56a1.22,1.22,0,0,0,1.33,1.32"/></svg>